HIERARCHY
ROOT Hips
{
	OFFSET	0.00	0.00	0.00
	CHANNELS 6 Xposition Yposition Zposition Zrotation Xrotation Yrotation
	JOINT LeftUpLeg
	{
		OFFSET	 0.126116	-0.014019	-0.065224
		CHANNELS 3 Zrotation Xrotation Yrotation
		JOINT LeftLeg
		{
			OFFSET	 0.000000	 0.000000	 0.569914
			CHANNELS 3 Zrotation Xrotation Yrotation
			JOINT LeftFoot
			{
				OFFSET	 0.000000	 0.000000	 0.544423
				CHANNELS 3 Zrotation Xrotation Yrotation
				JOINT LeftToeBase
				{
					OFFSET	 0.000000	 0.000000	 0.207117
					CHANNELS 3 Zrotation Xrotation Yrotation
					End Site
					{
						OFFSET	 0.000000	 0.000000	 0.207117
					}
				}
			}
		}
	}
	JOINT RightUpLeg
	{
		OFFSET	-0.124023	-0.008373	-0.065224
		CHANNELS 3 Zrotation Xrotation Yrotation
		JOINT RightLeg
		{
			OFFSET	 0.000000	 0.000000	 0.570047
			CHANNELS 3 Zrotation Xrotation Yrotation
			JOINT RightFoot
			{
				OFFSET	 0.000000	 0.000000	 0.544354
				CHANNELS 3 Zrotation Xrotation Yrotation
				JOINT RightToeBase
				{
					OFFSET	 0.000000	 0.000000	 0.207540
					CHANNELS 3 Zrotation Xrotation Yrotation
					End Site
					{
						OFFSET	 0.000000	 0.000000	 0.207540
					}
				}
			}
		}
	}
	JOINT Spine
	{
		OFFSET	 0.000184	-0.007763	 0.117403
		CHANNELS 3 Zrotation Xrotation Yrotation
		JOINT Spine1
		{
			OFFSET	 0.000000	 0.000000	 0.137269
			CHANNELS 3 Zrotation Xrotation Yrotation
			JOINT Spine2
			{
				OFFSET	 0.000000	 0.000000	 0.156879
				CHANNELS 3 Zrotation Xrotation Yrotation
				JOINT LeftShoulder
				{
					OFFSET	 0.080501	-0.002496	 0.160144
					CHANNELS 3 Zrotation Xrotation Yrotation
					JOINT LeftArm
					{
						OFFSET	 0.000000	 0.000000	 0.164363
						CHANNELS 3 Zrotation Xrotation Yrotation
						JOINT LeftForeArm
						{
							OFFSET	 0.000000	 0.000000	 0.364576
							CHANNELS 3 Zrotation Xrotation Yrotation
							JOINT LeftHand
							{
								OFFSET	 0.000000	 0.000000	 0.360812
								CHANNELS 3 Zrotation Xrotation Yrotation
								JOINT LeftHandIndex1
								{
									OFFSET	 0.000000	 0.000000	 0.086006
									CHANNELS 3 Zrotation Xrotation Yrotation
									JOINT LeftHandIndex2
									{
										OFFSET	 0.000000	 0.000000	 0.047236
										CHANNELS 3 Zrotation Xrotation Yrotation
										JOINT LeftHandIndex3
										{
											OFFSET	-0.004284	-0.000551	 0.038166
											CHANNELS 3 Zrotation Xrotation Yrotation
											End Site
											{
												OFFSET	-0.004284	-0.000551	 0.038166
											}
										}
									}
								}
							}
						}
					}
				}
				JOINT Neck
				{
					OFFSET	 0.000000	 0.000000	 0.176489
					CHANNELS 3 Zrotation Xrotation Yrotation
					JOINT Head
					{
						OFFSET	 0.000000	-0.001747	 0.077940
						CHANNELS 3 Zrotation Xrotation Yrotation
						End Site
						{
							OFFSET	 0.000000	-0.001747	 0.077940
						}
					}
				}
				JOINT RightShoulder
				{
					OFFSET	-0.080363	 0.000306	 0.159706
					CHANNELS 3 Zrotation Xrotation Yrotation
					JOINT RightArm
					{
						OFFSET	 0.000000	 0.000000	 0.164196
						CHANNELS 3 Zrotation Xrotation Yrotation
						JOINT RightForeArm
						{
							OFFSET	 0.000000	 0.000000	 0.365611
							CHANNELS 3 Zrotation Xrotation Yrotation
							JOINT RightHand
							{
								OFFSET	 0.000000	 0.000000	 0.360648
								CHANNELS 3 Zrotation Xrotation Yrotation
								JOINT RightHandIndex1
								{
									OFFSET	 0.000000	 0.000000	 0.069977
									CHANNELS 3 Zrotation Xrotation Yrotation
									JOINT RightHandIndex2
									{
										OFFSET	 0.000000	 0.000000	 0.052305
										CHANNELS 3 Zrotation Xrotation Yrotation
										JOINT RightHandIndex3
										{
											OFFSET	 0.009002	-0.000782	 0.042196
											CHANNELS 3 Zrotation Xrotation Yrotation
											End Site
											{
												OFFSET	 0.009002	-0.000782	 0.042196
											}
										}
									}
								}
							}
						}
					}
				}
			}
		}
	}
}
MOTION
Frames:    10
Frame Time: 0.03333334
 6.961350	 3.723322	 0.824954	-179.464100	-2.086683	 0.048146	 6.422319	-1.861220	-178.395900	-2.558326	-35.234840	 1.196968	 16.699240	 89.907220	-15.743400	-2.376345	 30.391830	-0.042483	 1.651308	-29.999480	 179.485900	 20.075490	-72.012730	 23.510250	 179.112900	 89.083580	-171.742600	 2.378497	 29.690110	 0.028407	-1.308143	 4.344884	 1.341107	-1.336823	-1.948586	 1.021409	-0.267565	-4.686208	-0.028564	-91.794500	 78.144740	 178.890000	 35.632980	 63.412060	-47.636400	-8.964484	-4.239251	-29.581210	-0.507419	-39.027660	-6.908951	-3.812334	 37.924440	-2.927599	-2.450526	 36.184240	 0.754587	-1.378229	 35.397820	-2.634230	-0.321767	 4.053835	-1.927105	 0.384341	-11.871330	-1.430963	 89.792210	 78.682270	 179.516400	-41.796180	 71.374110	 43.727130	 1.696986	-7.580667	 25.855780	-5.557902	-39.687200	 12.479260	 6.437017	 35.671460	-0.771858	 2.830251	 35.756010	-7.813440	-2.350882	 35.473990	 5.254307
 6.956411	 3.792530	 0.821425	-179.168600	-1.571984	-0.707191	 5.973746	 3.942888	-177.158800	-3.269773	-29.591820	 0.932609	 12.302290	 89.649460	-11.707790	-2.373829	 30.850720	-0.052716	 2.078247	-33.531070	 179.770200	 11.997490	-62.086340	 14.745070	-170.967900	 89.108250	 178.775200	 2.379008	 29.587510	 0.026150	-1.401137	 4.206280	 2.218935	-1.529240	-2.065480	 0.956599	-0.315374	-4.812181	-0.034010	-91.766590	 78.702900	 178.766700	 34.888910	 61.785640	-49.130680	-8.651940	-4.505965	-31.799970	-0.325957	-38.389310	-6.851040	-3.812334	 37.924440	-2.927599	-2.450526	 36.184240	 0.754587	-1.378229	 35.397820	-2.634230	-0.368643	 4.239152	-2.537897	 0.521398	-12.304750	-1.200930	 89.780400	 78.130020	 179.451800	-41.620530	 71.568810	 42.670400	 1.966735	-7.706749	 27.050890	-5.376343	-39.065170	 12.374810	 6.437017	 35.671460	-0.771858	 2.830251	 35.756010	-7.813440	-2.350882	 35.473990	 5.254307
 6.953555	 3.860935	 0.819150	-178.964300	-0.934640	-0.985492	 6.835073	 11.040040	-176.985100	-3.644404	-20.379030	 1.331984	 5.363364	 87.451100	-3.617248	-2.360570	 33.000610	-0.101672	 2.561401	-35.189970	 179.695000	 7.973442	-51.171460	 9.909654	-144.976100	 89.557660	 153.184600	 2.388706	 27.425110	-0.020717	-1.341259	 3.848352	 2.550504	-1.522524	-2.215621	 0.958517	-0.287327	-4.858837	-0.031102	-91.756010	 78.888950	 178.750300	 34.425370	 60.661900	-50.288280	-8.636730	-4.507062	-32.928600	-0.420367	-37.710680	-6.784301	-3.812334	 37.924440	-2.927599	-2.450526	 36.184240	 0.754587	-1.378229	 35.397820	-2.634230	-0.278065	 4.391974	-2.950173	 0.602526	-12.536010	-1.149491	 89.776150	 77.944990	 179.455900	-41.458690	 71.878080	 42.171590	 2.085194	-7.677614	 26.917740	-5.574205	-38.384320	 12.254370	 6.437017	 35.671460	-0.771858	 2.830251	 35.756010	-7.813440	-2.350882	 35.473990	 5.254307
 6.951431	 3.930648	 0.815699	-178.589600	-0.790524	-1.267873	 8.258704	 18.850860	-176.880700	-4.005235	-11.618940	 1.577527	 3.616149	 84.119170	 0.263079	-2.330369	 36.830620	-0.193705	 3.185612	-35.855630	 179.781100	 4.609759	-41.997680	 6.351166	-161.407000	 89.408180	 168.944400	 2.379088	 29.572570	 0.025816	-1.305073	 3.620563	 2.743910	-1.464119	-2.317796	 1.017195	-0.169925	-4.847334	-0.018376	-91.752730	 78.938320	 178.723300	 34.436800	 60.257880	-51.377330	-8.674116	-4.501360	-32.920880	-0.314228	-36.936180	-6.714500	-3.812334	 37.924440	-2.927599	-2.450526	 36.184240	 0.754587	-1.378229	 35.397820	-2.634230	-0.134203	 4.350142	-3.215633	 0.758694	-12.448900	-0.970665	 89.774500	 77.894550	 179.415700	-41.229230	 72.313200	 42.020970	 1.962012	-7.508571	 25.420740	-6.213510	-37.635830	 12.117870	 6.437017	 35.671460	-0.771858	 2.830251	 35.756010	-7.813440	-2.350882	 35.473990	 5.254307
 6.952191	 4.005508	 0.813143	-177.903400	-0.922036	-1.269987	 8.395700	 22.556540	-178.059900	-3.147627	-11.600080	 1.712445	 4.632356	 83.485420	-0.070263	-2.285985	 41.027670	-0.303526	 3.133735	-35.151480	 179.582800	 2.939054	-37.455360	 4.600182	-177.333800	 89.074010	-176.034000	 2.368191	 31.556420	 0.070104	-1.470424	 3.779919	 2.431034	-1.519592	-2.294158	 0.987607	-0.090895	-4.768856	-0.009768	-91.760550	 78.791980	 178.673500	 35.276630	 60.560130	-52.548540	-8.569932	-4.500831	-31.644380	 0.042801	-36.038780	-6.639658	-3.812334	 37.924440	-2.927599	-2.450526	 36.184240	 0.754587	-1.378229	 35.397820	-2.634230	-0.113257	 4.187494	-3.229142	 0.894376	-12.114310	-0.575688	 89.777150	 78.036150	 179.297100	-40.313480	 72.938930	 41.163870	 1.870767	-7.255051	 23.404660	-7.061183	-36.788520	 11.963260	 6.437017	 35.671460	-0.771858	 2.830251	 35.756010	-7.813440	-2.350882	 35.473990	 5.254307
 6.954867	 4.088712	 0.810354	-177.335600	-1.121093	-1.140479	 8.856701	 26.354810	-179.818500	-1.970227	-11.570300	 1.905611	 5.545475	 80.478310	 0.149189	-2.208992	 46.307440	-0.459809	 2.883273	-33.652560	 179.020300	 3.994182	-38.569060	 5.308336	 16.163630	 89.458950	-9.033455	 2.376587	 30.061900	 0.036616	-1.493680	 3.311391	 2.087878	-1.464411	-2.157248	 0.848978	-0.006396	-4.543147	-0.000674	-91.763730	 78.730350	 178.613500	 36.555740	 61.575920	-53.014470	-8.469155	-4.385470	-29.163750	 0.454623	-35.097290	-6.558496	-3.812334	 37.924440	-2.927599	-2.450526	 36.184240	 0.754587	-1.378229	 35.397820	-2.634230	-0.056341	 4.231842	-3.280879	 0.995477	-11.695260	 0.081800	 89.779500	 78.109500	 179.339700	-38.524150	 73.589640	 38.966280	 1.740324	-6.941730	 21.373270	-7.906759	-35.876000	 11.799910	 6.437017	 35.671460	-0.771858	 2.830251	 35.756010	-7.813440	-2.350882	 35.473990	 5.254307
 6.958848	 4.188504	 0.808948	-176.457400	-1.747774	-0.804712	 9.774255	 30.199020	 177.625700	-1.134693	-11.551760	 2.016386	 5.698405	 72.435500	 1.110847	-2.125490	 50.515100	-0.604435	 1.876022	-31.466040	 177.787200	 6.990098	-42.703600	 7.391268	 6.773929	 85.834010	 1.372653	 2.392514	 26.408020	-0.042303	-1.564137	 2.696353	 1.398407	-1.349696	-1.925616	 0.628821	 0.169294	-4.115407	 0.017237	-91.774750	 78.549160	 178.539200	 38.029450	 63.536880	-52.048150	-8.357893	-4.257865	-26.094080	 1.074739	-33.952210	-6.464837	-3.812334	 37.924440	-2.927599	-2.450526	 36.184240	 0.754587	-1.378229	 35.397820	-2.634230	 0.057369	 4.495829	-3.123161	 1.162544	-11.083530	 0.752201	 89.784840	 78.303660	 179.362200	-35.720680	 74.079660	 35.282490	 1.549970	-6.529735	 19.324700	-8.675633	-34.771100	 11.609460	 6.437017	 35.671460	-0.771858	 2.830251	 35.756010	-7.813440	-2.350882	 35.473990	 5.254307
 6.966183	 4.274083	 0.815291	-175.655600	-2.318659	-1.406846	 7.534216	 22.302880	 176.853600	-0.888610	-30.858270	 1.961002	 3.514293	 66.115140	 0.234564	-2.151744	 49.312270	-0.560876	 1.395313	-28.990650	 177.706300	 7.185456	-46.214610	 7.792619	 6.084869	 84.542210	 1.369553	 2.403570	 22.197510	-0.129117	-1.430763	 2.299093	 1.833118	-1.222973	-1.744661	 0.723406	 0.344874	-3.694921	 0.033857	-91.764810	 78.698940	 178.503100	 38.131640	 66.010750	-49.363400	-8.553790	-4.246890	-23.425920	 1.989689	-32.811880	-6.368608	-3.812334	 37.924440	-2.927599	-2.450526	 36.184240	 0.754587	-1.378229	 35.397820	-2.634230	 0.227689	 4.384196	-3.351866	 1.330696	-10.099490	 1.043443	 89.780780	 78.153850	 179.380900	-34.094240	 74.154590	 33.252200	 1.222965	-6.204853	 17.822740	-9.326893	-33.646810	 11.424750	 6.437017	 35.671460	-0.771858	 2.830251	 35.756010	-7.813440	-2.350882	 35.473990	 5.254307
 6.974052	 4.356662	 0.823319	-174.272600	-3.184811	 0.144987	 7.524947	 12.778110	 172.826300	-1.333181	-51.488190	 0.632379	 1.486912	 57.008440	 0.825572	-2.302269	 39.625720	-0.265639	 0.272622	-23.590070	 175.543100	 7.952361	-46.114400	 7.469973	 6.225112	 85.874080	 1.016421	 2.407635	 18.010110	-0.212329	-1.801191	 2.847992	 0.013888	-1.265447	-1.601506	 0.390632	 0.390402	-3.468505	 0.037561	-91.808340	 78.011920	 178.545900	 36.718910	 68.433080	-45.564240	-9.372785	-4.131985	-21.250260	 2.635245	-31.535560	-6.268003	-3.812334	 37.924440	-2.927599	-2.450526	 36.184240	 0.754587	-1.378229	 35.397820	-2.634230	 0.168955	 3.642424	-2.781921	 1.309055	-8.901301	 0.946402	 89.803960	 78.828350	 179.201100	-33.906550	 73.802630	 33.245530	 0.968863	-6.162882	 17.603280	-9.709864	-32.356610	 11.255810	 6.437017	 35.671460	-0.771858	 2.830251	 35.756010	-7.813440	-2.350882	 35.473990	 5.254307
 6.980683	 4.427569	 0.830090	-173.161200	-3.612578	 2.690406	 6.237650	 3.481503	 169.522600	-2.150820	-66.346580	-2.170024	 0.094728	 56.607860	 1.023408	-2.324349	 37.477170	-0.209956	-0.503896	-18.359750	 172.584100	 8.430812	-43.820480	 6.596286	 6.117109	 86.904460	 0.939477	 2.407580	 16.682080	-0.238251	-2.101756	 3.285789	-2.658541	-1.191457	-1.540906	-0.167990	 0.333492	-3.518185	 0.032230	-91.855470	 77.071790	 178.680500	 35.423800	 69.895770	-42.628480	-10.407710	-3.841755	-20.004590	 2.483335	-30.246780	-6.177566	-3.812334	 37.924440	-2.927599	-2.450526	 36.184240	 0.754587	-1.378229	 35.397820	-2.634230	 0.103443	 3.301947	-1.783448	 1.056973	-8.691074	 0.601690	 89.838820	 79.758500	 179.201600	-34.684020	 73.070740	 34.754180	 0.946147	-6.312730	 18.445600	-9.698892	-31.038650	 11.112020	 6.437017	 35.671460	-0.771858	 2.830251	 35.756010	-7.813440	-2.350882	 35.473990	 5.254307
